<?xml version="1.0" encoding="UTF-8"?>
<svg id="Layer_1" xmlns="http://www.w3.org/2000/svg" version="1.1" viewBox="0 0 648 648">
  <!-- Generator: Adobe Illustrator 29.5.1, SVG Export Plug-In . SVG Version: 2.1.0 Build 141)  -->
  <defs>
    <style>
      .st0 {
        fill: #4e008e;
      }
    </style>
  </defs>
  <path class="st0" d="M611.9,128.8l-56.3,120.8h-225.5l-71.1,152.4h-63.7c.5-7.6,2-15.2,4.5-22.7,6.1-18.4,17.6-33.5,32-44.4,3.8,4.3,7.2,9,10.3,14,.5.8,1.4.7,1.8,0h0l102.7-220.2h265.3Z"/>
  <path class="st0" d="M89.7,449.3c-6.4,12.9-15.6,23.8-26.8,32.1-9.3-10.8-16.7-23.5-21.5-37.9-3.2-9.6-5-19.4-5.5-29h63.3c-.8,12-4,23.7-9.5,34.8"/>
  <path class="st0" d="M141.1,414.5v105.4c-25.9-1.5-50.5-12-69.4-29.4,12.1-9.4,22.1-21.4,29.1-35.5,6.4-12.8,10.1-26.5,10.9-40.4h29.3Z"/>
  <path class="st0" d="M94.7,379.4c2.5,7.4,4,15,4.5,22.7h-63.3c1.4-24.8,11-48.3,27-66.8,14.4,10.8,25.7,25.9,31.8,44.2"/>
  <path class="st0" d="M141.1,296.7v105.4h-29.4c-.5-8.9-2.2-17.9-5.2-26.6-6.8-20.3-19.2-37.1-34.9-49.3,11.3-10.5,25-18.8,40.6-24,9.6-3.2,19.3-5,28.9-5.5"/>
  <path class="st0" d="M182.9,402h-29.3v-105.4c25.9,1.4,50.6,11.9,69.5,29.3-16.3,12.5-28.4,29.5-35.1,49.5-2.9,8.7-4.6,17.6-5.1,26.6"/>
  <path class="st0" d="M223.1,490.6c-11.3,10.4-24.9,18.6-40.3,23.7-9.7,3.2-19.5,5-29.2,5.5v-105.4h29.3c.9,13.9,4.5,27.5,10.9,40.4,7.1,14.2,17.2,26.3,29.4,35.7"/>
  <path class="st0" d="M259,414.5c-1.4,24.8-11.1,48.5-27.2,67.1-11.3-8.4-20.5-19.4-27-32.3-5.5-11-8.7-22.8-9.6-34.8h63.8Z"/>
</svg>